PathFileType	4	(X/Y/Z)	C:/Users/beibeiliu/ov580/test_trc/User3\sequence.23_training_dense_right.trc
DataRate	CameraRate	NumFrames	NumMarkers	Units	OrigDataRate	OrigDataStartFrame	OrigNumFrames
120	120	24	19	mm	120	62	92
Frame#	Time	ThumbCMC			ThumbMCP			ThumbIP			ThumbTip			IndexMCP			IndexPIP			IndexTip			MiddleMCP			MiddlePIP			MiddleTip			RingMCP			RingPIP			RingTip			PinkyMCP			PinkyPIP			PinkyTip			BackHand1			BackHand2			BackHand3	
		X0	Y0	Z0	X1	Y1	Z1	X2	Y2	Z2	X3	Y3	Z3	X4	Y4	Z4	X5	Y5	Z5	X6	Y6	Z6	X7	Y7	Z7	X8	Y8	Z8	X9	Y9	Z9	X10	Y10	Z10	X11	Y11	Z11	X12	Y12	Z12	X13	Y13	Z13	X14	Y14	Z14	X15	Y15	Z15	X16	Y16	Z16	X17	Y17	Z17	X18	Y18	Z18	
61	0.508333	132.228	-21.1969	26.2459	120.646	-46.8633	10.9756	120.103	-69.7538	-11.3483	125.951	-85.623	-23.7745	139.811	-42.2887	-41.1469	132.448	-64.4739	-59.9092	121.896	-80.8228	-72.309	172.025	-54.7709	-39.5885	163.525	-79.802	-57.6306	158.421	-108.842	-68.7431	177.699	-69.3842	-18.0011	167.896	-93.2721	-5.87193	154.639	-94.439	25.2347	192.53	-71.6029	-4.62985	179.771	-88.1107	9.10222	157.95	-78.9009	32.9322	192.186	-18.1444	2.71709	192.367	-0.772768	30.6821	157.559	0.618225	10.1101	
62	0.516667	119.878	-1.70098	27.6747	105.151	-26.7427	12.5104	97.3288	-50.2619	-10.0232	93.1301	-66.4628	-20.5398	122.883	-31.5393	-39.0841	109.188	-47.9684	-53.1971	91.7768	-63.5392	-69.1346	144.19	-53.8606	-40.7339	129.954	-72.2038	-50.9423	116.802	-102.495	-60.7904	151.484	-65.0283	-11.4734	127.687	-83.1792	3.55963	116.907	-76.8089	35.5108	165.13	-70.7362	2.55024	141.243	-78.9651	16.6294	127.199	-62.9788	37.261	177.874	-16.5746	5.12305	186.027	-0.178037	32.3043	152.286	6.74252	9.54093	
63	0.525	119.026	20.314	25.5427	97.6605	1.10037	10.5891	81.8327	-17.0957	-8.37533	71.3837	-34.8369	-21.4409	111.752	-12.4619	-38.9956	88.7883	-18.8208	-54.8765	73.8703	-35.27	-67.9324	123.623	-37.7884	-35.9685	104.433	-50.8207	-46.3906	78.9774	-75.3628	-57.9121	125.582	-50.5932	-7.91378	100.119	-59.4765	7.56319	89.7485	-48.6122	35.1456	134.626	-59.4247	6.75386	112.013	-57.6796	17.7197	101.67	-41.2333	41.0559	168.337	-16.8449	3.13894	179.831	-0.731817	33.5056	151.778	17.9063	8.76016	
64	0.533333	136.085	44.1107	26.7321	105.985	36.4646	2.82645	85.8881	25.2779	-12.2411	72.4891	8.75428	-26.4106	116.646	16.9544	-42.3713	91.7871	14.1595	-60.3185	73.6402	6.31593	-73.4592	114.135	-11.5008	-39.186	90.8488	-21.3735	-48.8035	61.7962	-26.3304	-61.6689	108.113	-24.2354	-10.6269	78.3526	-20.7864	6.65078	74.3417	-4.55119	28.748	111.439	-34.0683	4.77317	89.9411	-23.394	18.3283	87.7877	-6.06469	40.2219	160.641	-14.7988	4.89903	177.823	-3.6734	33.5229	163.811	23.5911	9.8667	
65	0.541667	163.189	56.2577	17.8302	137.731	59.1704	-3.9202	116.55	57.7759	-24.9263	97.9556	49.3952	-36.4439	139.167	31.2643	-48.9194	117.307	34.1854	-68.6216	102.017	38.1951	-84.2276	119.727	4.95092	-45.165	99.8122	10.2448	-57.0587	73.8991	18.2312	-72.5754	108.205	7.48754	-19.5869	85.8997	24.5726	-8.83514	87.9684	44.1819	17.3334	104.885	-2.82859	-2.4894	89.6759	17.0567	11.007	97.1354	33.5479	28.1621	159.863	-9.11603	7.16989	175.788	-2.63954	35.6893	179.01	19.646	5.69877	
66	0.55	188.031	54.9802	11.9145	167.241	63.389	-11.6378	147.984	64.1958	-39.0118	130.845	60.6725	-51.0829	163.059	30.2413	-57.2748	154.427	39.5616	-77.385	138.02	46.7387	-100.566	142.623	11.4477	-49.9326	123.216	19.8232	-68.6764	98.0596	32.242	-88.4937	122.367	19.6932	-28.7939	106.34	45.1818	-20.4991	112.117	64.3506	0.725367	117.197	11.2425	-12.2619	106.986	33.6367	-6.5652	116.123	51.9373	18.2122	163.915	-9.93746	3.90929	176.994	-4.41923	34.6531	193.534	16.0799	8.37258	
67	0.558333	211.435	50.5154	9.70073	193.536	55.971	-18.5236	177.938	52.6053	-45.4037	166.234	55.3117	-63.0451	197.054	18.3039	-59.4723	191.309	27.4315	-83.959	179.139	31.501	-106.818	173.683	4.31948	-58.5746	158.057	8.85463	-76.6025	139.244	19.9301	-99.7756	152.861	10.8484	-34.3775	137.419	38.1726	-36.7865	138.116	62.3012	-15.2258	140.467	6.72748	-20.0029	134.192	36.2938	-19.9901	138.278	52.2152	1.30088	185.719	-11.4977	7.12546	192.12	-7.18849	39.7759	216.072	10.7824	8.00295	
68	0.566667	229.056	49.5945	9.77921	215.555	50.1841	-19.0448	205.99	48.0244	-51.7335	196.913	43.6125	-69.8812	232.284	9.9187	-54.2854	228.232	12.5024	-80.2688	223.089	18.9623	-106.069	208.202	-10.4104	-57.0835	197.23	-6.42962	-77.8632	181.863	-0.544407	-106.049	183.688	-1.07371	-38.4841	168.4	23.4719	-45.7117	161.046	52.3918	-28.181	173.187	-4.18838	-25.9811	163.018	17.1617	-29.7571	162.267	43.4386	-10.8667	215.618	-13.8912	10.1091	214.959	-6.87132	39.1461	237.323	8.39775	14.3869	
69	0.575	240.366	50.6072	9.36119	231.082	51.1238	-19.8911	226.258	42.4669	-52.8155	219.139	38.6435	-69.2485	263.581	19.2554	-54.5598	260.912	20.2655	-78.189	256.819	21.2114	-102.723	247.382	-7.46657	-52.3632	238.795	-7.59452	-77.3973	222.26	-11.1876	-105.73	219.067	-6.84047	-37.6934	198.072	11.0064	-49.3605	175.766	32.8577	-34.7724	207.679	-10.2695	-28.3496	187.086	2.82941	-31.8873	177.643	25.667	-18.0171	244.351	-12.3506	12.012	241.286	3.10657	43.9624	259.504	24.1288	21.0306	
70	0.583333	237.571	60.7544	12.6989	232.632	55.9901	-21.0947	232.122	50.6146	-52.826	230.582	42.546	-71.6541	277.2	38.5732	-52.6398	275.395	42.626	-76.2081	271.473	43.1858	-104.566	274.2	8.66128	-48.3559	269.995	10.2457	-74.3099	259.119	0.905788	-103.565	247.331	2.22713	-37.8828	221.419	6.5497	-51.9297	193.064	20.1688	-42.7896	237.315	-8.8262	-29.2432	211.554	-0.563853	-33.8385	195.793	14.282	-24.7133	267.957	4.06882	12.5347	258.465	13.1397	41.5268	270.16	40.748	22.4666	
71	0.591667	220.565	64.6559	12.6736	215.045	63.2587	-19.9144	222.917	53.4485	-50.0775	223.734	49.1331	-73.7554	264.018	69.9632	-48.8992	262.457	69.1256	-76.2955	258.074	72.3627	-98.7806	277.044	44.9769	-51.9093	275.505	41.7878	-75.4121	268.356	33.1927	-110.201	257.056	19.4732	-40.746	234.109	7.98803	-51.9755	199.757	7.39012	-44.5756	255.491	3.40123	-27.6311	231.721	1.9707	-37.0359	208.014	4.5694	-26.0961	275.428	30.7487	15.4603	259.636	32.1991	45.7416	253.815	61.5424	25.4245	
72	0.6	195.584	58.4132	17.5282	193.066	57.1219	-19.4257	198.243	54.8424	-48.9033	200.881	50.8757	-71.3656	232.388	84.8666	-44.9697	228.255	88.0162	-75.5828	225.014	87.68	-100.055	254.534	68.2749	-50.8198	255.812	64.2221	-78.0144	250.053	58.762	-108.004	249.019	39.169	-41.6964	228.548	20.3886	-57.958	205.73	-0.716015	-50.797	254.381	23.9589	-30.5705	229.999	9.35704	-40.1246	207.247	-2.02547	-27.7228	260.425	53.3494	13.2825	251.957	46.1322	39.8092	229.277	73.7201	21.489	
73	0.608333	173.64	50.7456	16.8222	162.686	46.6431	-14.5357	166.665	45.4591	-44.1134	166.439	44.5336	-66.1216	194.112	85.8395	-45.4772	184.937	88.1574	-70.9487	183.359	88.9394	-94.4399	220.268	76.4582	-51.4242	220.068	72.725	-76.0831	216.478	66.332	-108.616	225.958	48.9086	-43.5901	217.545	24.3521	-63.4139	199.969	-0.865301	-63.2213	239.188	33.6952	-34.0646	225.181	12.3772	-47.0587	202.435	-5.38856	-39.1357	233.33	62.9433	8.66742	229.355	52.5667	40.512	200.515	71.2636	24.9629	
74	0.616667	151.583	40.5575	21.3075	141.792	35.7547	-10.5286	136.844	33.1563	-37.2721	134.235	30.8976	-60.4102	161.729	76.0681	-44.8346	152.611	77.0794	-71.9366	151.571	74.8611	-94.8005	188.358	71.0574	-53.1533	188.971	66.2564	-80.3237	185.99	59.1692	-108.285	203.022	50.0496	-45.1307	197.945	26.1252	-69.275	190.032	4.17338	-76.6756	219.988	39.5572	-35.7274	211.998	19.0716	-56.3498	195.089	-2.25731	-56.223	211.109	63.4266	6.36191	208.494	54.2377	39.784	176.708	68.9602	21.556	
75	0.625	132.104	34.9972	23.6067	117.568	25.4988	-1.38959	108.121	19.8234	-28.0507	99.3639	15.8483	-51.7886	137.302	62.5931	-48.176	128.258	59.9809	-72.251	120.88	57.0843	-95.4093	162.755	60.8942	-52.1188	160.652	53.9636	-82.6233	159.205	42.3202	-113.538	184.135	45.537	-51.172	181.617	34.1716	-71.0207	179.449	10.061	-89.2979	204.058	39.9274	-33.6095	206.938	28.1823	-56.4451	198.664	4.55977	-72.8965	190.47	60.7041	4.52824	190.345	54.3856	36.5903	154.661	65.395	20.238	
76	0.633333	120.995	30.3981	25.9749	103.148	19.1123	-1.4205	91.8149	9.33312	-22.9981	78.2565	1.08964	-39.6282	128.957	50.3921	-47.866	114.541	45.3107	-72.1426	111.824	40.6881	-100.667	151.809	49.7592	-56.7756	151.976	42.1385	-84.2519	147.856	30.8987	-111.605	172.686	42.7591	-48.5367	176.1	34.1052	-76.7757	176.862	19.4512	-97.6218	193.722	35.8279	-33.1705	201.774	29.8259	-54.9231	202.359	15.1875	-79.3437	175.962	54.4348	6.13484	181.533	56.0197	31.0583	145.206	58.2935	21.1612	
77	0.641667	115.049	28.8133	23.2041	100.206	14.1267	3.02219	82.7141	4.15891	-18.102	68.8376	-6.46752	-33.8113	122.5	41.7098	-54.616	115.931	36.264	-77.4774	113.967	33.4723	-102.251	153.222	41.185	-60.0834	149.889	35.2209	-85.0988	153.7	25.7215	-115.342	176.774	37.2588	-53.5881	174.948	33.1503	-74.4542	178.544	25.3016	-98.8789	197.325	28.0637	-31.635	206.403	23.6612	-53.5959	213.742	14.7302	-76.993	173.608	48.5149	-0.311293	178.082	51.0786	27.4673	144.342	53.2325	13.487	
78	0.65	114.952	26.7339	22.515	97.0224	11.6912	4.9499	77.5879	-0.743424	-20.984	69.1043	-12.1508	-36.1336	130.725	32.9256	-53.7165	119.73	29.7565	-79.6751	119.743	26.3967	-104.731	157.037	34.811	-57.9938	160.277	29.1654	-86.4395	159.379	21.4441	-116.182	180.079	29.8923	-51.7063	185.157	27.6905	-76.0341	187.554	20.6434	-100.546	200.15	21.1164	-34.1438	210.303	17.2755	-49.0595	217.56	14.0197	-71.3487	174.912	45.2315	-1.60631	174.569	50.7959	27.9233	144.512	49.1056	8.80905	
79	0.658333	116.756	23.537	19.4887	97.5596	9.84487	1.89434	84.5548	-3.66505	-15.8995	73.6381	-15.2936	-35.3299	130.598	28.9899	-58.5244	127.718	24.4375	-84.2814	120.354	18.8228	-106.015	158.796	30.974	-59.5644	161.686	25.2859	-86.4885	162.317	15.8803	-121.04	179.593	25.9011	-48.5091	185.597	23.5068	-76.3192	191.403	14.5935	-102.436	203.166	17.1431	-32.5897	207.885	12.9658	-51.3021	222.972	7.66954	-71.8225	177.037	41.5994	-0.83459	176.125	47.4455	24.6165	144.754	45.6207	9.69143	
80	0.666667	119.33	23.9019	20.9232	99.8612	8.75107	-1.11076	85.6387	-3.89059	-20.1327	72.766	-15.5606	-35.7121	137.446	30.894	-58.2939	128.685	24.9448	-83.4366	124.915	15.8222	-106.743	163.63	30.4555	-60.4061	166.327	24.8332	-87.77	162.636	13.8443	-117.575	182.527	25.9434	-48.3154	186.063	21.4378	-74.1332	190.151	11.7096	-101.057	200.969	15.7425	-32.6072	212.426	9.06792	-53.1872	221.787	0.250273	-74.8282	178.523	40.0281	-0.0868393	179.976	43.5955	26.9027	147.589	44.6825	11.0224	
81	0.675	122.079	22.2747	21.1802	104.141	8.11992	0.368935	88.1413	-2.5247	-20.6762	82.4663	-14.062	-38.9881	136.444	32.8252	-56.2513	129.952	26.1022	-82.421	125.28	15.4065	-107.151	167.832	31.5372	-61.8158	167.288	22.6749	-89.9839	162.1	10.4071	-117.46	186.013	25.0956	-50.0795	186.524	20.1782	-77.0629	193.22	6.98578	-100.865	204.076	13.7838	-33.6943	214.155	6.99423	-52.8	220.464	-0.133978	-73.5822	182.776	37.4304	3.47934	186.988	40.9376	30.663	155.086	44.0678	12.1278	
82	0.683333	120.654	20.9725	21.5795	105.496	7.25556	0.7871	92.3122	-3.67789	-22.8384	82.9052	-14.8404	-40.352	141.091	30.8868	-56.0618	132.916	26.1015	-79.3549	129.57	15.7073	-101.174	166.584	30.3085	-57.5026	163.656	24.671	-83.3135	164.009	7.95866	-117.513	185.992	23.3708	-49.8477	187.105	17.0197	-75.9096	191.468	5.75053	-96.7691	203.751	12.6137	-29.4084	214.841	5.22103	-50.8517	219.786	-1.74868	-70.8722	186.143	35.9781	0.439721	185.924	40.2268	29.2727	154.242	42.2664	11.5649	
83	0.691667	125.133	19.6137	24.8843	104.419	5.84907	1.85084	91.3137	-4.40222	-18.7952	82.1009	-15.6673	-38.3003	141.519	30.4698	-51.4988	130.349	24.5558	-79.4566	124.348	14.2345	-102.345	168.812	29.2096	-54.9176	166.173	21.8321	-82.118	163.401	7.6249	-112.186	183.974	21.6912	-44.7432	189.305	15.6913	-69.5022	188.948	4.27569	-97.8183	204.776	10.8797	-31.7645	212.354	4.09242	-52.5358	218.961	-3.04777	-70.112	188.128	35.2637	4.14937	189.039	36.8222	35.6844	155.518	43.2447	14.6136	
84	0.7	124.151	18.9084	25.8986	107.459	5.73393	2.83214	89.2298	-5.38659	-19.7734	83.3046	-16.5477	-35.5705	135.411	30.6485	-51.3097	131.799	22.9561	-77.8431	125.607	13.4837	-100.978	165.134	27.4513	-52.9238	164.861	20.3931	-84.7291	165.356	6.14188	-112.953	182.894	21.3085	-47.5471	191.802	14.0312	-69.8658	187.468	3.13205	-94.9041	203.557	9.77114	-24.99	214.567	3.42759	-46.7259	216.369	-4.29664	-68.3596	182.258	35.0095	2.72435	186.953	36.7551	33.2496	155.842	40.7016	14.7358	
